<svg xmlns="http://www.w3.org/2000/svg" width="27" height="27" viewBox="0 0 27 27">
  <g>
    <g>
      <g>
        <path fill="#cc0b28" d="M11.027 12.07C6.66 9.513 5.789 7.181 7.269 2.12c-1.641-.027-3.482 1.46-4.182 3.378-.793 2.172-.114 4.628 1.665 6.12 1.47 1.232 4.063 1.877 6.275.452z"/>
      </g>
      <g>
        <path fill="#cc0b28" d="M14.543 10.815c1.513-4.494 4.605-6.283 9.285-5.303-.858-2.246-2.811-3.624-5.066-3.643a5.557 5.557 0 0 0-5.162 3.42c-.8 1.948-.417 4.24.943 5.526z"/>
      </g>
      <g>
        <path fill="#cc0b28" d="M16.285.828c-1.449-1.118-4.31-1.18-6.166.282-1.77 1.392-2.555 3.716-1.94 5.876.583 2.048 2.387 3.637 4.408 3.814-.922-1.888-1.17-3.81-.442-5.78.728-1.97 2.124-3.314 4.14-4.192z"/>
      </g>
      <g>
        <path fill="#cc0b28" d="M15.2 26.582c2.852.476 4.986-1.05 5.901-2.757 1.074-2.005.847-4.388-.608-6.142-1.298-1.564-3.395-2.295-5.173-1.749 1.48 1.471 2.355 3.18 2.35 5.287-.005 2.109-.917 3.802-2.47 5.36z"/>
      </g>
      <g>
        <path fill="#cc0b28" d="M13.353 16.435c.226 2.197-.217 4.076-1.576 5.676-1.353 1.592-3.119 2.364-5.202 2.508.76 1.47 3.257 2.4 5.204 1.978 2.287-.494 4.039-2.295 4.367-4.488.348-2.323-.655-4.47-2.793-5.674z"/>
      </g>
      <g>
        <path fill="#cc0b28" d="M23.188 22.296c1.72-.587 3.023-3.04 2.833-5.07-.232-2.481-1.919-4.405-4.33-4.973-1.969-.464-4.56.447-5.283 1.96 2.077.162 3.852.929 5.192 2.533 1.34 1.604 1.801 3.476 1.588 5.55z"/>
      </g>
      <g>
        <path fill="#cc0b28" d="M26.57 14.047c1.028-2.476-.125-4.842-1.397-5.962-1.808-1.592-4.405-1.872-6.48-.66-1.77 1.036-2.9 3.106-2.561 4.698 3.999-2.64 8.014-1.462 10.438 1.924z"/>
      </g>
      <g>
        <path fill="#cc0b28" d="M1.092 17.594c-.26 2.114 1.169 4.276 3.291 5.139a5.522 5.522 0 0 0 6.438-1.746c1.21-1.57 1.516-3.952.623-5.154-1.153 1.698-2.696 2.838-4.726 3.182-2.042.346-3.926-.136-5.626-1.421z"/>
      </g>
      <g>
        <path fill="#cc0b28" d="M10.618 13.958c-2.03.608-3.957.496-5.773-.531-1.86-1.052-2.949-2.688-3.466-4.756-1.488 1.303-1.732 4.003-.923 5.76.959 2.083 3.079 3.374 5.36 3.226 2.264-.148 4.126-1.545 4.802-3.699z"/>
      </g>
    </g>
  </g>
</svg>
